<svg xmlns="http://www.w3.org/2000/svg" width="64" height="64" viewBox="0 0 64 64">
<path d="M 12.000 16.000 L 34.000 16.000 L 34.000 38.000 L 12.000 38.000 L 12.000 16.000" stroke="#EDEDED" stroke-width="3.0" fill="none" stroke-linecap="round" stroke-linejoin="round" opacity="0.2" />
<path d="M 22.000 26.000 L 44.000 26.000 L 44.000 48.000 L 22.000 48.000 L 22.000 26.000" stroke="#EDEDED" stroke-width="3.0" fill="none" stroke-linecap="round" stroke-linejoin="round" opacity="0.2" />
<line x1="12.000" y1="16.000" x2="22.000" y2="26.000" stroke="#EDEDED" stroke-width="3.0" stroke-linecap="round" opacity="0.2" />
<line x1="34.000" y1="16.000" x2="44.000" y2="26.000" stroke="#EDEDED" stroke-width="3.0" stroke-linecap="round" opacity="0.2" />
<line x1="34.000" y1="38.000" x2="44.000" y2="48.000" stroke="#EDEDED" stroke-width="3.0" stroke-linecap="round" opacity="0.2" />
<line x1="12.000" y1="38.000" x2="22.000" y2="48.000" stroke="#EDEDED" stroke-width="3.0" stroke-linecap="round" opacity="0.2" />
<circle cx="32.000" cy="32.000" r="14.000" fill="none" stroke="#EDEDED" stroke-width="5.5" />
<line x1="27.500" y1="27.500" x2="36.500" y2="36.500" stroke="#EDEDED" stroke-width="5.5" stroke-linecap="round" />
<line x1="27.500" y1="36.500" x2="36.500" y2="27.500" stroke="#EDEDED" stroke-width="5.5" stroke-linecap="round" />
<rect x="38.000" y="38.000" width="22.000" height="22.000" rx="7.000" ry="7.000" fill="#2DD4BF" />
<polygon points="45.226,45.344 45.226,42.750 52.774,42.750 52.774,45.344" fill="#0B0B0B" />
<polygon points="51.742,43.261 53.805,44.833 46.258,54.739 44.195,53.167" fill="#0B0B0B" />
<polygon points="45.226,55.250 45.226,52.656 52.774,52.656 52.774,55.250" fill="#0B0B0B" />
</svg>
