<svg viewBox="0 0 720 520" xmlns="http://www.w3.org/2000/svg" font-family="Georgia, serif">
<rect width="720" height="520" fill="#faf8f4"/>
<line x1="357.6" y1="264.1" x2="311.9" y2="292.6" stroke="#8888aa" stroke-width="1.4" stroke-linecap="round"/><line x1="357.6" y1="264.1" x2="317.5" y2="287.3" stroke="#8888aa" stroke-width="1.4" stroke-linecap="round"/><line x1="357.6" y1="264.1" x2="357.3" y2="178.2" stroke="#8888aa" stroke-width="1.4" stroke-linecap="round"/><line x1="357.6" y1="264.1" x2="440.4" y2="286.8" stroke="#8888aa" stroke-width="1.4" stroke-linecap="round"/><line x1="311.9" y1="292.6" x2="243.6" y2="332.2" stroke="#1a1a2e" stroke-width="2.2" stroke-linecap="round"/><line x1="311.9" y1="292.6" x2="303.2" y2="140.5" stroke="#1a1a2e" stroke-width="2.2" stroke-linecap="round"/><line x1="311.9" y1="292.6" x2="457.4" y2="346.6" stroke="#1a1a2e" stroke-width="2.2" stroke-linecap="round"/><line x1="317.5" y1="287.3" x2="243.6" y2="332.2" stroke="#8888aa" stroke-width="1.4" stroke-linecap="round"/><line x1="317.5" y1="287.3" x2="313.4" y2="203.8" stroke="#8888aa" stroke-width="1.4" stroke-linecap="round"/><line x1="317.5" y1="287.3" x2="393.3" y2="314.2" stroke="#8888aa" stroke-width="1.4" stroke-linecap="round"/><line x1="243.6" y1="332.2" x2="222.8" y2="187.2" stroke="#1a1a2e" stroke-width="2.2" stroke-linecap="round"/><line x1="243.6" y1="332.2" x2="365.6" y2="400.0" stroke="#1a1a2e" stroke-width="2.2" stroke-linecap="round"/><line x1="357.3" y1="178.2" x2="303.2" y2="140.5" stroke="#8888aa" stroke-width="1.4" stroke-linecap="round"/><line x1="357.3" y1="178.2" x2="313.4" y2="203.8" stroke="#8888aa" stroke-width="1.4" stroke-linecap="round"/><line x1="357.3" y1="178.2" x2="449.8" y2="186.5" stroke="#8888aa" stroke-width="1.4" stroke-linecap="round"/><line x1="303.2" y1="140.5" x2="222.8" y2="187.2" stroke="#1a1a2e" stroke-width="2.2" stroke-linecap="round"/><line x1="303.2" y1="140.5" x2="482.5" y2="142.3" stroke="#1a1a2e" stroke-width="2.2" stroke-linecap="round"/><line x1="313.4" y1="203.8" x2="222.8" y2="187.2" stroke="#8888aa" stroke-width="1.4" stroke-linecap="round"/><line x1="313.4" y1="203.8" x2="397.2" y2="217.1" stroke="#8888aa" stroke-width="1.4" stroke-linecap="round"/><line x1="222.8" y1="187.2" x2="367.0" y2="209.4" stroke="#1a1a2e" stroke-width="2.2" stroke-linecap="round"/><line x1="440.4" y1="286.8" x2="457.4" y2="346.6" stroke="#1a1a2e" stroke-width="2.2" stroke-linecap="round"/><line x1="440.4" y1="286.8" x2="393.3" y2="314.2" stroke="#8888aa" stroke-width="1.4" stroke-linecap="round"/><line x1="440.4" y1="286.8" x2="449.8" y2="186.5" stroke="#8888aa" stroke-width="1.4" stroke-linecap="round"/><line x1="457.4" y1="346.6" x2="365.6" y2="400.0" stroke="#1a1a2e" stroke-width="2.2" stroke-linecap="round"/><line x1="457.4" y1="346.6" x2="482.5" y2="142.3" stroke="#1a1a2e" stroke-width="2.2" stroke-linecap="round"/><line x1="393.3" y1="314.2" x2="365.6" y2="400.0" stroke="#1a1a2e" stroke-width="2.2" stroke-linecap="round"/><line x1="393.3" y1="314.2" x2="397.2" y2="217.1" stroke="#8888aa" stroke-width="1.4" stroke-linecap="round"/><line x1="365.6" y1="400.0" x2="367.0" y2="209.4" stroke="#1a1a2e" stroke-width="2.2" stroke-linecap="round"/><line x1="449.8" y1="186.5" x2="482.5" y2="142.3" stroke="#1a1a2e" stroke-width="2.2" stroke-linecap="round"/><line x1="449.8" y1="186.5" x2="397.2" y2="217.1" stroke="#8888aa" stroke-width="1.4" stroke-linecap="round"/><line x1="482.5" y1="142.3" x2="367.0" y2="209.4" stroke="#1a1a2e" stroke-width="2.2" stroke-linecap="round"/><line x1="397.2" y1="217.1" x2="367.0" y2="209.4" stroke="#1a1a2e" stroke-width="2.2" stroke-linecap="round"/>
<circle cx="357.6" cy="264.1" r="4" fill="#b0b0c8"/><circle cx="311.9" cy="292.6" r="4" fill="#e94560"/><circle cx="317.5" cy="287.3" r="4" fill="#b0b0c8"/><circle cx="243.6" cy="332.2" r="4" fill="#e94560"/><circle cx="357.3" cy="178.2" r="4" fill="#b0b0c8"/><circle cx="303.2" cy="140.5" r="4" fill="#e94560"/><circle cx="313.4" cy="203.8" r="4" fill="#b0b0c8"/><circle cx="222.8" cy="187.2" r="4" fill="#e94560"/><circle cx="440.4" cy="286.8" r="4" fill="#b0b0c8"/><circle cx="457.4" cy="346.6" r="4" fill="#e94560"/><circle cx="393.3" cy="314.2" r="4" fill="#b0b0c8"/><circle cx="365.6" cy="400.0" r="4" fill="#e94560"/><circle cx="449.8" cy="186.5" r="4" fill="#b0b0c8"/><circle cx="482.5" cy="142.3" r="4" fill="#e94560"/><circle cx="397.2" cy="217.1" r="4" fill="#b0b0c8"/><circle cx="367.0" cy="209.4" r="4" fill="#e94560"/>
<text x="360" y="475" text-anchor="middle" font-size="19" fill="#1a1a2e">The 8-cell (tesseract): perspective projection from 4D to the plane</text>
<text x="360" y="500" text-anchor="middle" font-size="15" font-style="italic" fill="#666">Thinkable &#8212; but intuitable?</text>
</svg>