<svg viewBox="0 0 800 310" xmlns="http://www.w3.org/2000/svg" font-family="Georgia, serif">
<rect width="800" height="310" fill="#faf8f4"/>
<circle cx="70" cy="150" r="4.5" fill="#1a1a2e"/><line x1="160" y1="150" x2="230" y2="150" stroke="#1a1a2e" stroke-width="2.2"/><circle cx="160" cy="150" r="4.5" fill="#1a1a2e"/><circle cx="230" cy="150" r="4.5" fill="#1a1a2e"/><rect x="310" y="115" width="70" height="70" fill="none" stroke="#1a1a2e" stroke-width="2.2"/><circle cx="310" cy="115" r="3.5" fill="#1a1a2e"/><circle cx="380" cy="115" r="3.5" fill="#1a1a2e"/><circle cx="310" cy="185" r="3.5" fill="#1a1a2e"/><circle cx="380" cy="185" r="3.5" fill="#1a1a2e"/><rect x="470" y="120" width="64" height="64" fill="none" stroke="#1a1a2e" stroke-width="2.0"/><rect x="494" y="96" width="64" height="64" fill="none" stroke="#9a9ab8" stroke-width="1.6"/><line x1="470" y1="120" x2="494" y2="96" stroke="#9a9ab8" stroke-width="1.5"/><line x1="534" y1="120" x2="558" y2="96" stroke="#9a9ab8" stroke-width="1.5"/><line x1="470" y1="184" x2="494" y2="160" stroke="#9a9ab8" stroke-width="1.5"/><line x1="534" y1="184" x2="558" y2="160" stroke="#9a9ab8" stroke-width="1.5"/><rect x="650" y="126" width="60" height="60" fill="none" stroke="#1a1a2e" stroke-width="2.0"/><rect x="672" y="104" width="60" height="60" fill="none" stroke="#9a9ab8" stroke-width="1.6"/><line x1="650" y1="126" x2="672" y2="104" stroke="#9a9ab8" stroke-width="1.5"/><line x1="710" y1="126" x2="732" y2="104" stroke="#9a9ab8" stroke-width="1.5"/><line x1="650" y1="186" x2="672" y2="164" stroke="#9a9ab8" stroke-width="1.5"/><line x1="710" y1="186" x2="732" y2="164" stroke="#9a9ab8" stroke-width="1.5"/><rect x="684" y="92" width="60" height="60" fill="none" stroke="#e94560" stroke-width="2.0"/><rect x="706" y="70" width="60" height="60" fill="none" stroke="#f0a4b4" stroke-width="1.6"/><line x1="684" y1="92" x2="706" y2="70" stroke="#9a9ab8" stroke-width="1.5"/><line x1="744" y1="92" x2="766" y2="70" stroke="#9a9ab8" stroke-width="1.5"/><line x1="684" y1="152" x2="706" y2="130" stroke="#9a9ab8" stroke-width="1.5"/><line x1="744" y1="152" x2="766" y2="130" stroke="#9a9ab8" stroke-width="1.5"/><line x1="650" y1="126" x2="684" y2="92" stroke="#e94560" stroke-width="1.3" stroke-dasharray="4 3"/><line x1="672" y1="104" x2="706" y2="70" stroke="#f0a4b4" stroke-width="1.1" stroke-dasharray="4 3"/><line x1="710" y1="126" x2="744" y2="92" stroke="#e94560" stroke-width="1.3" stroke-dasharray="4 3"/><line x1="732" y1="104" x2="766" y2="70" stroke="#f0a4b4" stroke-width="1.1" stroke-dasharray="4 3"/><line x1="650" y1="186" x2="684" y2="152" stroke="#e94560" stroke-width="1.3" stroke-dasharray="4 3"/><line x1="672" y1="164" x2="706" y2="130" stroke="#f0a4b4" stroke-width="1.1" stroke-dasharray="4 3"/><line x1="710" y1="186" x2="744" y2="152" stroke="#e94560" stroke-width="1.3" stroke-dasharray="4 3"/><line x1="732" y1="164" x2="766" y2="130" stroke="#f0a4b4" stroke-width="1.1" stroke-dasharray="4 3"/><line x1="95" y1="140" x2="139" y2="140" stroke="#888" stroke-width="2"/><path d="M 139 140 l -9 -5 v 10 z" fill="#888"/><line x1="255" y1="140" x2="299" y2="140" stroke="#888" stroke-width="2"/><path d="M 299 140 l -9 -5 v 10 z" fill="#888"/><line x1="405" y1="140" x2="449" y2="140" stroke="#888" stroke-width="2"/><path d="M 449 140 l -9 -5 v 10 z" fill="#888"/><line x1="565" y1="140" x2="609" y2="140" stroke="#888" stroke-width="2"/><path d="M 609 140 l -9 -5 v 10 z" fill="#888"/><text x="70" y="235" text-anchor="middle" font-size="17" fill="#1a1a2e">0-D</text><text x="195" y="235" text-anchor="middle" font-size="17" fill="#1a1a2e">1-D</text><text x="345" y="235" text-anchor="middle" font-size="17" fill="#1a1a2e">2-D</text><text x="514" y="235" text-anchor="middle" font-size="17" fill="#1a1a2e">3-D</text><text x="698" y="235" text-anchor="middle" font-size="17" fill="#1a1a2e">4-D</text>
<text x="400" y="272" text-anchor="middle" font-size="18" fill="#1a1a2e">Each figure is the previous one, dragged along a new perpendicular axis</text>
<text x="400" y="296" text-anchor="middle" font-size="14" font-style="italic" fill="#666">The Flatland argument: we stand to 4-D as the Square stands to 3-D</text>
</svg>