<svg xmlns="http://www.w3.org/2000/svg" width="64" height="64" viewBox="0 0 64 64">
<rect x="16.000" y="16.000" width="32.000" height="32.000" rx="6.000" ry="6.000" fill="none" stroke="#111111" stroke-width="3.0" opacity="0.22" />
<path d="M 52.000 32.000 A 20.000 20.000 0 0 0 32.000 12.000" stroke="#111111" stroke-width="5.5" fill="none" stroke-linecap="round" stroke-linejoin="round" />
<polygon points="18.000,12.000 32.000,3.000 32.000,21.000" fill="#111111" />
<rect x="38.000" y="38.000" width="22.000" height="22.000" rx="7.000" ry="7.000" fill="#2563EB" />
<polygon points="38.501,44.462 40.749,42.750 48.968,53.538 46.720,55.250" fill="#FFFFFF" />
<polygon points="40.749,55.250 38.501,53.538 46.720,42.750 48.968,44.462" fill="#FFFFFF" />
<polygon points="49.032,44.462 51.280,42.750 55.389,48.144 53.142,49.856" fill="#FFFFFF" />
<polygon points="57.251,42.750 59.499,44.462 55.389,49.856 53.142,48.144" fill="#FFFFFF" />
<polygon points="52.853,49.000 55.678,49.000 55.678,54.394 52.853,54.394" fill="#FFFFFF" />
</svg>
