<svg xmlns="http://www.w3.org/2000/svg" width="16" height="16" viewBox="0 0 16 16">
<path d="M 8.000 3.000 A 5.000 5.000 0 0 1 13.000 8.000" stroke="#EDEDED" stroke-width="2.4" fill="none" stroke-linecap="round" stroke-linejoin="round" />
<polygon points="13.000,12.500 10.250,8.000 15.750,8.000" fill="#EDEDED" />
<rect x="8.000" y="8.000" width="7.000" height="7.000" rx="2.200" ry="2.200" fill="#60A5FA" />
<polygon points="7.972,9.975 8.728,9.400 11.489,13.025 10.734,13.600" fill="#0B0B0B" />
<polygon points="8.728,13.600 7.972,13.025 10.734,9.400 11.489,9.975" fill="#0B0B0B" />
<polygon points="11.511,9.975 12.266,9.400 13.647,11.212 12.892,11.788" fill="#0B0B0B" />
<polygon points="14.272,9.400 15.028,9.975 13.647,11.788 12.892,11.212" fill="#0B0B0B" />
<polygon points="12.795,11.500 13.744,11.500 13.744,13.312 12.795,13.312" fill="#0B0B0B" />
</svg>
